<svg width="834" height="352" viewBox="0 0 834 352" fill="none" xmlns="http://www.w3.org/2000/svg">
<g filter="url(#filter0_d_44_53)">
<mask id="path-1-outside-1_44_53" maskUnits="userSpaceOnUse" x="3" y="-1" width="828" height="346" fill="black">
<rect fill="white" x="3" y="-1" width="828" height="346"/>
<path d="M4.152 140V2.79999H42.176V106.68H108.62V140H4.152ZM124.929 140V2.79999H235.277V35.14H162.561V55.916H228.417V85.904H162.561V107.66H236.257V140H124.929ZM255.66 140V2.79999H326.024C343.272 2.79999 355.424 7.11199 363.46 15.148C368.948 20.636 372.28 27.888 372.28 37.296V37.688C372.28 53.564 363.264 62.972 351.112 68.264C367.772 73.752 378.356 83.16 378.356 101.78V102.172C378.356 125.692 359.148 140 326.416 140H255.66ZM292.704 57.484H316.616C328.18 57.484 334.648 53.564 334.648 45.528V45.136C334.648 37.688 328.768 33.376 317.4 33.376H292.704V57.484ZM292.704 109.424H322.104C333.668 109.424 340.332 104.916 340.332 96.88V96.488C340.332 89.04 334.452 84.14 321.712 84.14H292.704V109.424ZM395.769 140V2.79999H460.645C481.617 2.79999 496.121 8.28799 505.333 17.696C513.369 25.536 517.485 36.12 517.485 49.644V50.036C517.485 71.008 506.313 84.924 489.261 92.176L521.993 140H478.089L450.453 98.448H450.061H433.793V140H395.769ZM433.793 68.656H458.881C471.817 68.656 479.265 62.384 479.265 52.388V51.996C479.265 41.216 471.425 35.728 458.685 35.728H433.793V68.656ZM605.636 142.744C563.3 142.744 531.94 111.188 531.94 71.792V71.4C531.94 32.004 563.692 0.0559909 606.028 0.0559909C648.364 0.0559909 679.724 31.612 679.724 71.008V71.4C679.724 110.796 647.972 142.744 605.636 142.744ZM606.028 108.444C627 108.444 640.916 91.588 640.916 71.792V71.4C640.916 51.604 626.608 34.356 605.636 34.356C584.86 34.356 570.944 51.212 570.944 71.008V71.4C570.944 91.196 585.252 108.444 606.028 108.444ZM699.531 140V2.79999H735.007L791.455 75.32V2.79999H829.087V140H795.767L737.163 64.736V140H699.531ZM4.152 344V206.8H39.628L96.076 279.32V206.8H133.708V344H100.388L41.784 268.736V344H4.152ZM148.047 344L195.087 274.224L150.007 206.8H193.715L218.019 245.412L242.519 206.8H285.247L240.167 273.832L287.207 344H243.499L217.235 302.644L190.775 344H148.047ZM291.601 344L338.641 274.224L293.561 206.8H337.269L361.573 245.412L386.073 206.8H428.801L383.721 273.832L430.761 344H387.053L360.789 302.644L334.329 344H291.601ZM478.668 344V240.12H437.508V206.8H557.852V240.12H516.692V344H478.668Z"/>
</mask>
<path d="M4.152 140H3.152V141H4.152V140ZM4.152 2.79999V1.79999H3.152V2.79999H4.152ZM42.176 2.79999H43.176V1.79999H42.176V2.79999ZM42.176 106.68H41.176V107.68H42.176V106.68ZM108.62 106.68H109.62V105.68H108.62V106.68ZM108.62 140V141H109.62V140H108.62ZM5.152 140V2.79999H3.152V140H5.152ZM4.152 3.79999H42.176V1.79999H4.152V3.79999ZM41.176 2.79999V106.68H43.176V2.79999H41.176ZM42.176 107.68H108.62V105.68H42.176V107.68ZM107.62 106.68V140H109.62V106.68H107.62ZM108.62 139H4.152V141H108.62V139ZM124.929 140H123.929V141H124.929V140ZM124.929 2.79999V1.79999H123.929V2.79999H124.929ZM235.277 2.79999H236.277V1.79999H235.277V2.79999ZM235.277 35.14V36.14H236.277V35.14H235.277ZM162.561 35.14V34.14H161.561V35.14H162.561ZM162.561 55.916H161.561V56.916H162.561V55.916ZM228.417 55.916H229.417V54.916H228.417V55.916ZM228.417 85.904V86.904H229.417V85.904H228.417ZM162.561 85.904V84.904H161.561V85.904H162.561ZM162.561 107.66H161.561V108.66H162.561V107.66ZM236.257 107.66H237.257V106.66H236.257V107.66ZM236.257 140V141H237.257V140H236.257ZM125.929 140V2.79999H123.929V140H125.929ZM124.929 3.79999H235.277V1.79999H124.929V3.79999ZM234.277 2.79999V35.14H236.277V2.79999H234.277ZM235.277 34.14H162.561V36.14H235.277V34.14ZM161.561 35.14V55.916H163.561V35.14H161.561ZM162.561 56.916H228.417V54.916H162.561V56.916ZM227.417 55.916V85.904H229.417V55.916H227.417ZM228.417 84.904H162.561V86.904H228.417V84.904ZM161.561 85.904V107.66H163.561V85.904H161.561ZM162.561 108.66H236.257V106.66H162.561V108.66ZM235.257 107.66V140H237.257V107.66H235.257ZM236.257 139H124.929V141H236.257V139ZM255.66 140H254.66V141H255.66V140ZM255.66 2.79999V1.79999H254.66V2.79999H255.66ZM351.112 68.264L350.713 67.3472L348.309 68.3937L350.799 69.2138L351.112 68.264ZM292.704 57.484H291.704V58.484H292.704V57.484ZM292.704 33.376V32.376H291.704V33.376H292.704ZM292.704 109.424H291.704V110.424H292.704V109.424ZM292.704 84.14V83.14H291.704V84.14H292.704ZM256.66 140V2.79999H254.66V140H256.66ZM255.66 3.79999H326.024V1.79999H255.66V3.79999ZM326.024 3.79999C343.114 3.79999 354.968 8.07077 362.753 15.8551L364.167 14.4409C355.879 6.15321 343.43 1.79999 326.024 1.79999V3.79999ZM362.753 15.8551C368.052 21.1548 371.28 28.1521 371.28 37.296H373.28C373.28 27.6239 369.843 20.1172 364.167 14.4409L362.753 15.8551ZM371.28 37.296V37.688H373.28V37.296H371.28ZM371.28 37.688C371.28 45.4231 369.088 51.5293 365.455 56.3425C361.812 61.1678 356.677 64.7497 350.713 67.3472L351.511 69.1808C357.699 66.4863 363.148 62.7182 367.051 57.5475C370.963 52.3647 373.28 45.8289 373.28 37.688H371.28ZM350.799 69.2138C359.04 71.9286 365.666 75.5781 370.231 80.7587C374.776 85.9155 377.356 92.6764 377.356 101.78H379.356C379.356 92.2636 376.644 85.0105 371.732 79.4363C366.84 73.8859 359.843 70.0874 351.425 67.3142L350.799 69.2138ZM377.356 101.78V102.172H379.356V101.78H377.356ZM377.356 102.172C377.356 113.625 372.697 122.777 364.069 129.099C355.405 135.449 342.654 139 326.416 139V141C342.91 141 356.129 137.397 365.251 130.713C374.411 124.001 379.356 114.239 379.356 102.172H377.356ZM326.416 139H255.66V141H326.416V139ZM292.704 58.484H316.616V56.484H292.704V58.484ZM316.616 58.484C322.482 58.484 327.216 57.4948 330.512 55.3587C333.877 53.1784 335.648 49.8634 335.648 45.528H333.648C333.648 49.2286 332.185 51.8915 329.424 53.6803C326.596 55.5131 322.314 56.484 316.616 56.484V58.484ZM335.648 45.528V45.136H333.648V45.528H335.648ZM335.648 45.136C335.648 41.1096 334.037 37.8516 330.857 35.6418C327.731 33.4693 323.186 32.376 317.4 32.376V34.376C322.982 34.376 327.06 35.4387 329.716 37.2842C332.318 39.0924 333.648 41.7144 333.648 45.136H335.648ZM317.4 32.376H292.704V34.376H317.4V32.376ZM291.704 33.376V57.484H293.704V33.376H291.704ZM292.704 110.424H322.104V108.424H292.704V110.424ZM322.104 110.424C327.993 110.424 332.778 109.28 336.119 106.99C339.511 104.667 341.332 101.218 341.332 96.88H339.332C339.332 100.578 337.82 103.401 334.989 105.341C332.108 107.314 327.778 108.424 322.104 108.424V110.424ZM341.332 96.88V96.488H339.332V96.88H341.332ZM341.332 96.488C341.332 92.4641 339.724 89.0608 336.375 86.7033C333.077 84.3813 328.186 83.14 321.712 83.14V85.14C327.977 85.14 332.397 86.3487 335.224 88.3387C338 90.2932 339.332 93.0639 339.332 96.488H341.332ZM321.712 83.14H292.704V85.14H321.712V83.14ZM291.704 84.14V109.424H293.704V84.14H291.704ZM395.769 140H394.769V141H395.769V140ZM395.769 2.79999V1.79999H394.769V2.79999H395.769ZM505.333 17.696L504.619 18.3956L504.627 18.4038L504.635 18.4118L505.333 17.696ZM489.261 92.176L488.87 91.2558L487.747 91.7335L488.436 92.7408L489.261 92.176ZM521.993 140V141H523.889L522.818 139.435L521.993 140ZM478.089 140L477.257 140.554L477.553 141H478.089V140ZM450.453 98.448L451.286 97.8942L450.989 97.448H450.453V98.448ZM433.793 98.448V97.448H432.793V98.448H433.793ZM433.793 140V141H434.793V140H433.793ZM433.793 68.656H432.793V69.656H433.793V68.656ZM433.793 35.728V34.728H432.793V35.728H433.793ZM396.769 140V2.79999H394.769V140H396.769ZM395.769 3.79999H460.645V1.79999H395.769V3.79999ZM460.645 3.79999C481.452 3.79999 495.657 9.2428 504.619 18.3956L506.048 16.9964C496.586 7.33318 481.783 1.79999 460.645 1.79999V3.79999ZM504.635 18.4118C512.445 26.031 516.485 36.339 516.485 49.644H518.485C518.485 35.901 514.294 25.041 506.031 16.9802L504.635 18.4118ZM516.485 49.644V50.036H518.485V49.644H516.485ZM516.485 50.036C516.485 70.5628 505.595 84.1427 488.87 91.2558L489.653 93.0962C507.031 85.7053 518.485 71.4532 518.485 50.036H516.485ZM488.436 92.7408L521.168 140.565L522.818 139.435L490.086 91.6112L488.436 92.7408ZM521.993 139H478.089V141H521.993V139ZM478.922 139.446L451.286 97.8942L449.621 99.0018L477.257 140.554L478.922 139.446ZM450.453 97.448H450.061V99.448H450.453V97.448ZM450.061 97.448H433.793V99.448H450.061V97.448ZM432.793 98.448V140H434.793V98.448H432.793ZM433.793 139H395.769V141H433.793V139ZM433.793 69.656H458.881V67.656H433.793V69.656ZM458.881 69.656C465.498 69.656 470.843 68.0529 474.554 65.0476C478.29 62.0213 480.265 57.6562 480.265 52.388H478.265C478.265 57.1158 476.516 60.8847 473.295 63.4934C470.048 66.1231 465.201 67.656 458.881 67.656V69.656ZM480.265 52.388V51.996H478.265V52.388H480.265ZM480.265 51.996C480.265 46.3368 478.192 41.9584 474.361 39.0255C470.57 36.1237 465.179 34.728 458.685 34.728V36.728C464.932 36.728 469.83 38.0763 473.145 40.6135C476.419 43.1196 478.265 46.8752 478.265 51.996H480.265ZM458.685 34.728H433.793V36.728H458.685V34.728ZM432.793 35.728V68.656H434.793V35.728H432.793ZM605.636 141.744C563.829 141.744 532.94 110.613 532.94 71.792H530.94C530.94 111.763 562.771 143.744 605.636 143.744V141.744ZM532.94 71.792V71.4H530.94V71.792H532.94ZM532.94 71.4C532.94 32.5791 564.221 1.05599 606.028 1.05599V-0.944008C563.163 -0.944008 530.94 31.4289 530.94 71.4H532.94ZM606.028 1.05599C647.835 1.05599 678.724 32.1873 678.724 71.008H680.724C680.724 31.0367 648.893 -0.944008 606.028 -0.944008V1.05599ZM678.724 71.008V71.4H680.724V71.008H678.724ZM678.724 71.4C678.724 110.221 647.443 141.744 605.636 141.744V143.744C648.501 143.744 680.724 111.371 680.724 71.4H678.724ZM606.028 109.444C627.637 109.444 641.916 92.0517 641.916 71.792H639.916C639.916 91.1243 626.363 107.444 606.028 107.444V109.444ZM641.916 71.792V71.4H639.916V71.792H641.916ZM641.916 71.4C641.916 51.1389 627.244 33.356 605.636 33.356V35.356C625.973 35.356 639.916 52.069 639.916 71.4H641.916ZM605.636 33.356C584.22 33.356 569.944 50.7523 569.944 71.008H571.944C571.944 51.6717 585.501 35.356 605.636 35.356V33.356ZM569.944 71.008V71.4H571.944V71.008H569.944ZM569.944 71.4C569.944 91.6572 584.613 109.444 606.028 109.444V107.444C585.891 107.444 571.944 90.7348 571.944 71.4H569.944ZM699.531 140H698.531V141H699.531V140ZM699.531 2.79999V1.79999H698.531V2.79999H699.531ZM735.007 2.79999L735.796 2.18576L735.496 1.79999H735.007V2.79999ZM791.455 75.32L790.666 75.9342L792.455 78.2328V75.32H791.455ZM791.455 2.79999V1.79999H790.455V2.79999H791.455ZM829.087 2.79999H830.087V1.79999H829.087V2.79999ZM829.087 140V141H830.087V140H829.087ZM795.767 140L794.978 140.614L795.278 141H795.767V140ZM737.163 64.736L737.952 64.1216L736.163 61.824V64.736H737.163ZM737.163 140V141H738.163V140H737.163ZM700.531 140V2.79999H698.531V140H700.531ZM699.531 3.79999H735.007V1.79999H699.531V3.79999ZM734.218 3.41423L790.666 75.9342L792.244 74.7058L735.796 2.18576L734.218 3.41423ZM792.455 75.32V2.79999H790.455V75.32H792.455ZM791.455 3.79999H829.087V1.79999H791.455V3.79999ZM828.087 2.79999V140H830.087V2.79999H828.087ZM829.087 139H795.767V141H829.087V139ZM796.556 139.386L737.952 64.1216L736.374 65.3504L794.978 140.614L796.556 139.386ZM736.163 64.736V140H738.163V64.736H736.163ZM737.163 139H699.531V141H737.163V139ZM4.152 344H3.152V345H4.152V344ZM4.152 206.8V205.8H3.152V206.8H4.152ZM39.628 206.8L40.4171 206.186L40.1169 205.8H39.628V206.8ZM96.076 279.32L95.2869 279.934L97.076 282.233V279.32H96.076ZM96.076 206.8V205.8H95.076V206.8H96.076ZM133.708 206.8H134.708V205.8H133.708V206.8ZM133.708 344V345H134.708V344H133.708ZM100.388 344L99.599 344.614L99.8993 345H100.388V344ZM41.784 268.736L42.573 268.122L40.784 265.824V268.736H41.784ZM41.784 344V345H42.784V344H41.784ZM5.152 344V206.8H3.152V344H5.152ZM4.152 207.8H39.628V205.8H4.152V207.8ZM38.8389 207.414L95.2869 279.934L96.8651 278.706L40.4171 206.186L38.8389 207.414ZM97.076 279.32V206.8H95.076V279.32H97.076ZM96.076 207.8H133.708V205.8H96.076V207.8ZM132.708 206.8V344H134.708V206.8H132.708ZM133.708 343H100.388V345H133.708V343ZM101.177 343.386L42.573 268.122L40.995 269.35L99.599 344.614L101.177 343.386ZM40.784 268.736V344H42.784V268.736H40.784ZM41.784 343H4.152V345H41.784V343ZM148.047 344L147.217 343.441L146.166 345H148.047V344ZM195.087 274.224L195.916 274.783L196.291 274.226L195.918 273.668L195.087 274.224ZM150.007 206.8V205.8H148.135L149.175 207.356L150.007 206.8ZM193.715 206.8L194.561 206.267L194.267 205.8H193.715V206.8ZM218.019 245.412L217.172 245.945L218.015 247.284L218.863 245.948L218.019 245.412ZM242.519 206.8V205.8H241.969L241.674 206.264L242.519 206.8ZM285.247 206.8L286.076 207.358L287.124 205.8H285.247V206.8ZM240.167 273.832L239.337 273.274L238.962 273.831L239.336 274.389L240.167 273.832ZM287.207 344V345H289.081L288.037 343.443L287.207 344ZM243.499 344L242.654 344.536L242.949 345H243.499V344ZM217.235 302.644L218.079 302.108L217.238 300.784L216.392 302.105L217.235 302.644ZM190.775 344V345H191.322L191.617 344.539L190.775 344ZM148.876 344.559L195.916 274.783L194.257 273.665L147.217 343.441L148.876 344.559ZM195.918 273.668L150.838 206.244L149.175 207.356L194.255 274.78L195.918 273.668ZM150.007 207.8H193.715V205.8H150.007V207.8ZM192.868 207.333L217.172 245.945L218.865 244.879L194.561 206.267L192.868 207.333ZM218.863 245.948L243.363 207.336L241.674 206.264L217.174 244.876L218.863 245.948ZM242.519 207.8H285.247V205.8H242.519V207.8ZM284.417 206.242L239.337 273.274L240.996 274.39L286.076 207.358L284.417 206.242ZM239.336 274.389L286.376 344.557L288.037 343.443L240.997 273.275L239.336 274.389ZM287.207 343H243.499V345H287.207V343ZM244.343 343.464L218.079 302.108L216.39 303.18L242.654 344.536L244.343 343.464ZM216.392 302.105L189.932 343.461L191.617 344.539L218.077 303.183L216.392 302.105ZM190.775 343H148.047V345H190.775V343ZM291.601 344L290.772 343.441L289.721 345H291.601V344ZM338.641 274.224L339.47 274.783L339.846 274.226L339.473 273.668L338.641 274.224ZM293.561 206.8V205.8H291.69L292.73 207.356L293.561 206.8ZM337.269 206.8L338.116 206.267L337.821 205.8H337.269V206.8ZM361.573 245.412L360.727 245.945L361.57 247.284L362.418 245.948L361.573 245.412ZM386.073 206.8V205.8H385.524L385.229 206.264L386.073 206.8ZM428.801 206.8L429.631 207.358L430.679 205.8H428.801V206.8ZM383.721 273.832L382.892 273.274L382.517 273.831L382.891 274.389L383.721 273.832ZM430.761 344V345H432.636L431.592 343.443L430.761 344ZM387.053 344L386.209 344.536L386.504 345H387.053V344ZM360.789 302.644L361.633 302.108L360.792 300.784L359.947 302.105L360.789 302.644ZM334.329 344V345H334.877L335.172 344.539L334.329 344ZM292.43 344.559L339.47 274.783L337.812 273.665L290.772 343.441L292.43 344.559ZM339.473 273.668L294.393 206.244L292.73 207.356L337.81 274.78L339.473 273.668ZM293.561 207.8H337.269V205.8H293.561V207.8ZM336.423 207.333L360.727 245.945L362.42 244.879L338.116 206.267L336.423 207.333ZM362.418 245.948L386.918 207.336L385.229 206.264L360.729 244.876L362.418 245.948ZM386.073 207.8H428.801V205.8H386.073V207.8ZM427.972 206.242L382.892 273.274L384.551 274.39L429.631 207.358L427.972 206.242ZM382.891 274.389L429.931 344.557L431.592 343.443L384.552 273.275L382.891 274.389ZM430.761 343H387.053V345H430.761V343ZM387.897 343.464L361.633 302.108L359.945 303.18L386.209 344.536L387.897 343.464ZM359.947 302.105L333.487 343.461L335.172 344.539L361.632 303.183L359.947 302.105ZM334.329 343H291.601V345H334.329V343ZM478.668 344H477.668V345H478.668V344ZM478.668 240.12H479.668V239.12H478.668V240.12ZM437.508 240.12H436.508V241.12H437.508V240.12ZM437.508 206.8V205.8H436.508V206.8H437.508ZM557.852 206.8H558.852V205.8H557.852V206.8ZM557.852 240.12V241.12H558.852V240.12H557.852ZM516.692 240.12V239.12H515.692V240.12H516.692ZM516.692 344V345H517.692V344H516.692ZM479.668 344V240.12H477.668V344H479.668ZM478.668 239.12H437.508V241.12H478.668V239.12ZM438.508 240.12V206.8H436.508V240.12H438.508ZM437.508 207.8H557.852V205.8H437.508V207.8ZM556.852 206.8V240.12H558.852V206.8H556.852ZM557.852 239.12H516.692V241.12H557.852V239.12ZM515.692 240.12V344H517.692V240.12H515.692ZM516.692 343H478.668V345H516.692V343Z" fill="#F6F6F6" mask="url(#path-1-outside-1_44_53)"/>
</g>
<defs>
<filter id="filter0_d_44_53" x="0.1521" y="0.0559082" width="832.935" height="351.944" filterUnits="userSpaceOnUse" color-interpolation-filters="sRGB">
<feFlood flood-opacity="0" result="BackgroundImageFix"/>
<feColorMatrix in="SourceAlpha" type="matrix" values="0 0 0 0 0 0 0 0 0 0 0 0 0 0 0 0 0 0 127 0" result="hardAlpha"/>
<feOffset dy="4"/>
<feGaussianBlur stdDeviation="2"/>
<feComposite in2="hardAlpha" operator="out"/>
<feColorMatrix type="matrix" values="0 0 0 0 0 0 0 0 0 0 0 0 0 0 0 0 0 0 0.25 0"/>
<feBlend mode="normal" in2="BackgroundImageFix" result="effect1_dropShadow_44_53"/>
<feBlend mode="normal" in="SourceGraphic" in2="effect1_dropShadow_44_53" result="shape"/>
</filter>
</defs>
</svg>
