<svg width="884" height="105" viewBox="0 0 884 105" fill="none" xmlns="http://www.w3.org/2000/svg">
<path d="M0.899532 100.584V2.349H15.5905V100.584H0.899532ZM0.899532 102V89.256H67.8055V102H0.899532ZM82.0983 102V2.349H151.128V15.093H96.6123V45.36H139.092V57.573H96.6123V89.964H152.898V102H82.0983ZM210.642 104.124C200.966 104.124 192.529 102.118 185.331 98.106C178.251 94.094 172.764 88.253 168.87 80.583C164.976 72.913 163.088 63.591 163.206 52.617C163.442 41.525 165.625 32.085 169.755 24.297C173.885 16.509 179.667 10.609 187.101 6.59699C194.653 2.585 203.326 0.578998 213.12 0.578998C226.218 0.578998 236.543 3.529 244.095 9.429C251.647 15.211 256.544 23.707 258.786 34.917L244.626 36.864C243.446 31.436 241.322 27.07 238.254 23.766C235.186 20.462 231.469 18.102 227.103 16.686C222.855 15.152 218.194 14.385 213.12 14.385C201.202 14.385 192.293 17.807 186.393 24.651C180.493 31.377 177.543 40.404 177.543 51.732C177.543 63.886 180.729 73.326 187.101 80.052C193.591 86.66 202.677 89.964 214.359 89.964C219.669 89.964 224.566 89.079 229.05 87.309C233.534 85.421 237.31 82.648 240.378 78.99C243.446 75.214 245.393 70.553 246.219 65.007H221.616V53.856H260.733V102H250.644L247.281 82.353H246.927C246.101 84.595 244.744 87.014 242.856 89.61C241.086 92.088 238.726 94.448 235.776 96.69C232.826 98.814 229.227 100.584 224.979 102C220.849 103.416 216.07 104.124 210.642 104.124ZM277.939 102V2.349H346.969V15.093H292.453V45.36H334.933V57.573H292.453V89.964H348.739V102H277.939ZM434.803 2.349H449.848V102H422.059L380.11 8.898H379.756V102H364.711V2.349H390.73L434.449 95.451H434.803V2.349ZM524.851 2.349H540.427L532.639 21.465L511.93 102H488.035L461.839 2.349H477.592L500.071 95.451L524.851 2.349ZM587.686 2.349H603.439L576.712 102H552.994L532.639 21.465L524.674 2.349H540.427L564.853 95.451L587.686 2.349ZM618.457 102V2.349H687.487V15.093H632.971V45.36H675.451V57.573H632.971V89.964H689.257V102H618.457ZM698.856 102L732.309 2.349H756.558L790.719 102H774.966L744.699 8.544L714.432 102H698.856ZM719.211 72.264L719.742 60.582H769.302L770.01 72.264H719.211ZM803.943 102V2.349H838.812C847.308 2.349 854.506 3.234 860.406 5.00399C866.424 6.77399 871.026 9.78299 874.212 14.031C877.398 18.161 878.991 23.884 878.991 31.2C878.991 36.274 878.106 40.817 876.336 44.829C874.684 48.841 872.147 52.027 868.725 54.387C865.303 56.629 861.055 57.75 855.981 57.75C859.875 57.75 862.884 58.517 865.008 60.051C867.25 61.467 868.902 63.414 869.964 65.892C871.026 68.252 871.734 70.789 872.088 73.503C872.442 76.217 872.678 78.872 872.796 81.468C873.032 84.064 873.445 86.306 874.035 88.194C874.625 90.082 875.628 91.38 877.044 92.088C878.578 92.796 880.761 92.619 883.593 91.557V100.407C881.941 101.823 879.817 102.767 877.221 103.239C874.625 103.829 871.97 103.652 869.256 102.708C866.66 101.882 864.418 100.112 862.53 97.398C860.76 94.566 859.875 90.495 859.875 85.185C859.875 80.229 859.639 76.099 859.167 72.795C858.813 69.491 857.928 66.954 856.512 65.184C855.096 63.296 852.913 61.939 849.963 61.113C847.013 60.169 843.001 59.697 837.927 59.697C832.971 59.579 826.599 59.638 818.811 59.874V102H803.943ZM818.811 48.9H839.343C845.361 48.9 850.317 48.546 854.211 47.838C858.105 47.012 860.996 45.419 862.884 43.059C864.89 40.581 865.893 36.982 865.893 32.262C865.893 26.716 864.713 22.704 862.353 20.226C859.993 17.748 856.571 16.214 852.087 15.624C847.603 14.916 842.057 14.562 835.449 14.562H818.811V48.9Z" fill="#1E1E1E"/>
</svg>
