<svg width="3898" height="802" viewBox="0 0 3898 802" fill="none" xmlns="http://www.w3.org/2000/svg">
<path d="M1008.65 261.1H1085.67V473.495H1198.02V539H1008.65V261.1ZM1319.41 539V476.671H1459.55V539H1319.41ZM1319.41 323.429V261.1H1459.55V323.429H1319.41ZM1319.41 424.664V364.32H1451.61V424.664H1319.41ZM1267.01 261.1H1340.85V539H1267.01V261.1ZM1692.65 440.941V383.773H1836.76C1838.61 406.534 1836.63 427.972 1830.8 448.087C1824.98 468.202 1815.85 485.802 1803.41 500.888C1790.97 515.974 1775.36 527.884 1756.56 536.618C1737.77 545.087 1716.2 549.322 1691.85 549.322C1669.36 549.322 1648.58 545.749 1629.52 538.603C1610.73 531.457 1594.32 521.4 1580.3 508.431C1566.53 495.198 1555.82 479.45 1548.14 461.188C1540.46 442.661 1536.63 422.282 1536.63 400.05C1536.63 377.818 1540.6 357.703 1548.54 339.706C1556.48 321.709 1567.59 306.358 1581.88 293.654C1596.18 280.685 1612.98 270.893 1632.3 264.276C1651.62 257.395 1672.53 253.954 1695.03 253.954C1715.41 253.954 1733.54 256.998 1749.42 263.085C1765.56 268.908 1779.72 276.98 1791.9 287.302C1804.07 297.359 1814.66 308.872 1823.66 321.841L1753.39 355.586C1747.83 345.529 1740.42 337.059 1731.16 330.178C1721.89 323.297 1709.85 319.856 1695.03 319.856C1681 319.856 1668.03 322.9 1656.12 328.987C1644.21 335.074 1634.69 344.073 1627.54 355.983C1620.66 367.893 1617.22 382.582 1617.22 400.05C1617.22 417.253 1620.53 432.207 1627.14 444.911C1633.76 457.35 1642.89 466.878 1654.54 473.495C1666.18 480.112 1679.68 483.42 1695.03 483.42C1704.29 483.42 1712.5 482.494 1719.64 480.641C1726.79 478.524 1733.01 475.612 1738.3 471.907C1743.6 467.937 1748.1 463.305 1751.8 458.012C1755.77 452.719 1758.95 447.028 1761.33 440.941H1692.65ZM1972.6 539V476.671H2112.74V539H1972.6ZM1972.6 323.429V261.1H2112.74V323.429H1972.6ZM1972.6 424.664V364.32H2104.8V424.664H1972.6ZM1920.2 261.1H1994.04V539H1920.2V261.1ZM2391.89 261.1H2465.73V552.895L2279.54 397.668V539H2205.7V247.205L2391.89 402.432V261.1ZM2823.76 406.005L2872.59 261.1H2964.69L2841.22 556.071L2749.52 402.829L2658.21 556.071L2534.74 261.1H2626.84L2675.68 406.005L2749.52 247.205L2823.76 406.005ZM3086.14 539V476.671H3226.28V539H3086.14ZM3086.14 323.429V261.1H3226.28V323.429H3086.14ZM3086.14 424.664V364.32H3218.34V424.664H3086.14ZM3033.74 261.1H3107.58V539H3033.74V261.1ZM3368.07 494.139L3370.45 437.368H3512.97L3514.96 494.139H3368.07ZM3440.72 375.039L3404.19 458.409L3408.96 475.48L3376.8 539H3289.46L3440.72 242.441L3592.37 539H3505.03L3473.27 478.259L3477.64 458.409L3440.72 375.039ZM3734.83 416.327H3813.83L3897.2 539H3807.48L3734.83 416.327ZM3659.4 261.1H3736.42V539H3659.4V261.1ZM3708.63 326.208V261.1H3768.57C3793.98 261.1 3814.89 265.07 3831.3 273.01C3847.97 280.95 3860.28 291.934 3868.22 305.961C3876.42 319.724 3880.53 335.736 3880.53 353.998C3880.53 371.995 3876.42 388.14 3868.22 402.432C3860.28 416.459 3847.97 427.443 3831.3 435.383C3814.89 443.058 3793.98 446.896 3768.57 446.896H3708.63V388.537H3762.22C3770.43 388.537 3777.31 387.346 3782.87 384.964C3788.42 382.582 3792.66 379.009 3795.57 374.245C3798.75 369.481 3800.33 363.791 3800.33 357.174C3800.33 350.557 3798.75 344.999 3795.57 340.5C3792.66 335.736 3788.42 332.163 3782.87 329.781C3777.31 327.399 3770.43 326.208 3762.22 326.208H3708.63Z" fill="white"/>
<path d="M0 0L401 157.637L802 0V802L401.354 639.404L0 802V0Z" fill="white"/>
<mask id="mask0_121_3" style="mask-type:alpha" maskUnits="userSpaceOnUse" x="0" y="0" width="802" height="802">
<path d="M0 0L401 157.637L802 0V802L401.354 639.404L0 802V0Z" fill="#2E2E2E"/>
</mask>
<g mask="url(#mask0_121_3)">
<path d="M294.463 365.266L572.622 462.435V-103.46V-110.812L579.531 -113.327L707.409 -159.867L721.5 -164.995V-150V662V677.189L707.291 671.823L287.291 513.225L280.5 510.66V503.402V375.178V360.388L294.463 365.266Z" fill="#1F2123" stroke="white" stroke-width="21"/>
</g>
<mask id="mask1_121_3" style="mask-type:alpha" maskUnits="userSpaceOnUse" x="0" y="0" width="802" height="802">
<path d="M0 0L401 157.637L802 0V802L401.354 639.404L0 802V0Z" fill="#2E2E2E"/>
</mask>
<g mask="url(#mask1_121_3)">
<path d="M499.128 341.192L254.878 426.516V-103.46V-128.668L231.19 -137.289L103.312 -183.829L55 -201.412V-150V662V714.075L103.718 695.679L523.718 537.08L547 528.289V503.402V375.178V324.469L499.128 341.192Z" fill="#1F2123" stroke="white" stroke-width="72"/>
</g>
</svg>
