<svg width="82" height="25" viewBox="0 0 82 25" fill="none" xmlns="http://www.w3.org/2000/svg">
<path d="M31.492 17V8.6H32.764V12.08H36.436V8.6H37.708V17H36.436V13.244H32.764V17H31.492ZM41.8673 17.144C41.2913 17.144 40.7833 17.016 40.3433 16.76C39.9033 16.496 39.5593 16.132 39.3113 15.668C39.0633 15.204 38.9393 14.664 38.9393 14.048C38.9393 13.424 39.0593 12.876 39.2993 12.404C39.5473 11.932 39.8913 11.564 40.3313 11.3C40.7793 11.036 41.2953 10.904 41.8793 10.904C42.4553 10.904 42.9513 11.036 43.3673 11.3C43.7833 11.556 44.1033 11.9 44.3273 12.332C44.5593 12.764 44.6753 13.24 44.6753 13.76C44.6753 13.84 44.6753 13.928 44.6753 14.024C44.6753 14.112 44.6713 14.212 44.6633 14.324H40.1873C40.2273 14.876 40.4073 15.296 40.7273 15.584C41.0473 15.864 41.4233 16.004 41.8553 16.004C42.2313 16.004 42.5273 15.928 42.7433 15.776C42.9673 15.616 43.1313 15.4 43.2353 15.128H44.5193C44.3753 15.696 44.0753 16.176 43.6193 16.568C43.1633 16.952 42.5793 17.144 41.8673 17.144ZM41.8673 12.008C41.4753 12.008 41.1273 12.128 40.8233 12.368C40.5193 12.6 40.3233 12.928 40.2353 13.352H43.4033C43.3713 12.952 43.2153 12.628 42.9353 12.38C42.6553 12.132 42.2993 12.008 41.8673 12.008ZM46.1106 17L48.1506 14.024L46.0386 11.048H47.4546L48.9906 13.268L50.5266 11.048H51.9426L49.8306 14.024L51.8706 17H50.4546L48.9906 14.78L47.5146 17H46.1106ZM55.6459 17.144C55.1739 17.144 54.7779 17.064 54.4579 16.904C54.1379 16.736 53.8979 16.516 53.7379 16.244C53.5779 15.964 53.4979 15.66 53.4979 15.332C53.4979 14.748 53.7099 14.292 54.1339 13.964C54.5659 13.636 55.1739 13.472 55.9579 13.472H57.4939V13.34C57.4939 12.444 57.0779 11.996 56.2459 11.996C55.9019 11.996 55.6099 12.072 55.3699 12.224C55.1379 12.368 54.9819 12.604 54.9019 12.932H53.6299C53.6939 12.308 53.9619 11.816 54.4339 11.456C54.9139 11.088 55.5179 10.904 56.2459 10.904C57.1259 10.904 57.7659 11.12 58.1659 11.552C58.5659 11.984 58.7659 12.58 58.7659 13.34V17H57.6859L57.5779 16.124H57.4939C57.3179 16.404 57.0979 16.644 56.8339 16.844C56.5699 17.044 56.1739 17.144 55.6459 17.144ZM55.8859 16.076C56.4059 16.076 56.7939 15.92 57.0499 15.608C57.3139 15.288 57.4579 14.884 57.4819 14.396H56.0899C55.6339 14.396 55.3099 14.472 55.1179 14.624C54.9339 14.768 54.8419 14.972 54.8419 15.236C54.8419 15.5 54.9339 15.708 55.1179 15.86C55.3099 16.004 55.5659 16.076 55.8859 16.076ZM63.2493 15.284C62.8813 15.284 62.5413 15.224 62.2293 15.104L61.9293 15.464C61.8333 15.584 61.8053 15.7 61.8453 15.812C61.8933 15.916 62.0013 15.968 62.1693 15.968H63.7413C64.4373 15.968 64.9973 16.116 65.4213 16.412C65.8533 16.7 66.0693 17.144 66.0693 17.744C66.0693 18.12 65.9733 18.46 65.7812 18.764C65.5973 19.076 65.2973 19.324 64.8813 19.508C64.4733 19.692 63.9333 19.784 63.2613 19.784C62.4133 19.784 61.7293 19.624 61.2093 19.304C60.6973 18.992 60.4413 18.52 60.4413 17.888C60.4413 17.664 60.4933 17.456 60.5973 17.264C60.7093 17.08 60.8533 16.912 61.0293 16.76C60.8133 16.6 60.6813 16.376 60.6333 16.088C60.5933 15.792 60.6813 15.508 60.8973 15.236L61.4253 14.564C61.0493 14.164 60.8613 13.672 60.8613 13.088C60.8613 12.696 60.9533 12.336 61.1373 12.008C61.3293 11.672 61.6013 11.404 61.9533 11.204C62.3133 11.004 62.7453 10.904 63.2493 10.904C63.5773 10.904 63.8813 10.952 64.1613 11.048H66.4053V11.888L65.3613 11.948V12.056C65.5293 12.368 65.6133 12.712 65.6133 13.088C65.6133 13.48 65.5173 13.844 65.3253 14.18C65.1413 14.516 64.8733 14.784 64.5213 14.984C64.1693 15.184 63.7453 15.284 63.2493 15.284ZM63.2493 14.264C63.6013 14.264 63.8893 14.16 64.1133 13.952C64.3453 13.744 64.4613 13.456 64.4613 13.088C64.4613 12.736 64.3453 12.456 64.1133 12.248C63.8893 12.04 63.6013 11.936 63.2493 11.936C62.8893 11.936 62.5933 12.04 62.3613 12.248C62.1373 12.456 62.0253 12.736 62.0253 13.088C62.0253 13.456 62.1373 13.744 62.3613 13.952C62.5933 14.16 62.8893 14.264 63.2493 14.264ZM61.6413 17.792C61.6413 18.112 61.7933 18.348 62.0973 18.5C62.4093 18.652 62.7973 18.728 63.2613 18.728C63.7573 18.728 64.1493 18.644 64.4373 18.476C64.7253 18.308 64.8693 18.072 64.8693 17.768C64.8693 17.512 64.7653 17.308 64.5573 17.156C64.3493 17.012 63.9973 16.94 63.5013 16.94H62.0973C61.7933 17.18 61.6413 17.464 61.6413 17.792ZM70.5766 17.144C70.0086 17.144 69.5006 17.016 69.0526 16.76C68.6046 16.504 68.2526 16.144 67.9966 15.68C67.7406 15.208 67.6126 14.656 67.6126 14.024C67.6126 13.392 67.7406 12.844 67.9966 12.38C68.2526 11.908 68.6046 11.544 69.0526 11.288C69.5006 11.032 70.0126 10.904 70.5886 10.904C71.1646 10.904 71.6726 11.032 72.1126 11.288C72.5606 11.544 72.9086 11.908 73.1566 12.38C73.4126 12.844 73.5406 13.392 73.5406 14.024C73.5406 14.656 73.4126 15.208 73.1566 15.68C72.9006 16.144 72.5486 16.504 72.1006 16.76C71.6606 17.016 71.1526 17.144 70.5766 17.144ZM70.5766 15.932C70.8806 15.932 71.1606 15.864 71.4166 15.728C71.6726 15.592 71.8766 15.384 72.0286 15.104C72.1886 14.816 72.2686 14.456 72.2686 14.024C72.2686 13.584 72.1886 13.224 72.0286 12.944C71.8766 12.664 71.6726 12.456 71.4166 12.32C71.1686 12.184 70.8926 12.116 70.5886 12.116C70.2846 12.116 70.0046 12.184 69.7486 12.32C69.4926 12.456 69.2846 12.664 69.1246 12.944C68.9726 13.224 68.8966 13.584 68.8966 14.024C68.8966 14.68 69.0606 15.164 69.3886 15.476C69.7246 15.78 70.1206 15.932 70.5766 15.932ZM75.1079 17V11.048H76.2119L76.3199 11.936H76.3799C76.5399 11.648 76.7879 11.404 77.1239 11.204C77.4599 11.004 77.8479 10.904 78.2879 10.904C79.0159 10.904 79.5639 11.124 79.9319 11.564C80.2999 12.004 80.4839 12.652 80.4839 13.508V17H79.2119V13.664C79.2119 13.168 79.1079 12.784 78.8999 12.512C78.6919 12.24 78.3639 12.104 77.9159 12.104C77.4759 12.104 77.1079 12.252 76.8119 12.548C76.5239 12.844 76.3799 13.272 76.3799 13.832V17H75.1079Z" fill="white"/>
<g clip-path="url(#clip0_193_223)">
<path d="M12.4001 23.2302C12.0723 23.4195 11.9083 23.5141 11.734 23.5511C11.5798 23.584 11.4205 23.584 11.2662 23.5511C11.092 23.5141 10.9279 23.4195 10.6001 23.2302L2.65732 18.6444C2.32945 18.4551 2.16552 18.3605 2.04629 18.2281C1.9408 18.1109 1.86111 17.9728 1.81239 17.823C1.75732 17.6534 1.75732 17.4642 1.75732 17.0855V7.91403C1.75732 7.53543 1.75732 7.34613 1.81239 7.17667C1.86111 7.02673 1.9408 6.8887 2.04629 6.77153C2.16552 6.63912 2.32945 6.54447 2.65732 6.35517L10.6001 1.7694C10.9279 1.58011 11.092 1.48546 11.2662 1.44842C11.4205 1.41563 11.5798 1.41563 11.734 1.44842C11.9083 1.48546 12.0723 1.58011 12.4001 1.7694L20.343 6.35517C20.6708 6.54447 20.8347 6.63912 20.9539 6.77153C21.0595 6.8887 21.1391 7.02673 21.1878 7.17667C21.243 7.34613 21.243 7.53543 21.243 7.91401V17.0855C21.243 17.4642 21.243 17.6534 21.1878 17.823C21.1391 17.9728 21.0595 18.1109 20.9539 18.2281C20.8347 18.3605 20.6708 18.4551 20.343 18.6444L12.4001 23.2302Z" stroke="white" stroke-width="1.67" stroke-linejoin="round"/>
</g>
<defs>
<clipPath id="clip0_193_223">
<rect width="23" height="25" fill="white"/>
</clipPath>
</defs>
</svg>
